<svg id="Слой_1" data-name="Слой 1" xmlns="http://www.w3.org/2000/svg" viewBox="0 0 562.72 562.72"><defs><style>.cls-1{fill:#06f;}</style></defs><path class="cls-1" d="M288.42,6.78C133,6.78,7.06,132.76,7.06,288.14S133,569.5,288.42,569.5s281.36-126,281.36-281.36S443.8,6.78,288.42,6.78ZM448,443.89H221c-71.41-7.35-80.92-77.45-80.92-77.45V252.18c6.91-32.89,28.55-39.81,28.55-39.81l-17.32-44.14c-17.3-.87-22.49-9.53-22.49-9.53-15.57-18.17-5.19-34.62-5.19-34.62,24.23-30.3,48.47-5.19,48.47-5.19,18.17,27.7-2.6,40.68-2.6,40.68l19,47.6h2.6l18.17-46.73C191.15,145.72,202.4,125,202.4,125c13-22.51,35.48-14.72,35.48-14.72,29.44,13.85,18.18,38.08,18.18,38.08-6.06,19.92-28.57,19.92-28.57,19.92l-17.3,44.14c19.9,9.52,22.93,21.21,22.93,21.21,28.57-56.28,81.36-62.32,81.36-62.32,90-13,125.51,55.38,125.51,55.38,44.14,93.49-17.32,148-17.32,148,32,22.49,32.89,53.66,32.89,53.66C458.16,443,448,443.89,448,443.89Z" transform="translate(-7.06 -6.78)"/></svg>